<svg t="1694845846994" class="icon" viewBox="0 0 1024 1024" version="1.1" xmlns="http://www.w3.org/2000/svg" p-id="2328" width="16" height="16"><path d="M297.24 645.15h36.18v36.18h-36.18zM644.58 342h36.18v36.18h-36.18z m0 303.2h36.18v36.18h-36.18z m-43.42 0h36.18v36.18h-36.18zM557.75 342h36.18v36.18h-36.18z m-173.68 86.78h36.19V465h-36.19z m173.68 0h36.18V465h-36.18zM384.07 472.2h36.19v36.18h-36.19z m43.42 0h36.18v36.18h-36.18z m86.84 0h36.18v36.18h-36.18z m43.42 0h36.18v36.18h-36.18z m-130.26 43.42h36.18v36.18h-36.18z m43.42 0h36.18v36.18h-36.18z m43.42 0h36.18v36.18h-36.18zM470.91 559h36.18v36.18h-36.18z m130.25-217h36.18v36.18h-36.18zM384.07 645.87h36.19v36.18h-36.19z m-43.41 0h36.18v36.18h-36.18z m86.83 0h36.18v36.18h-36.18z m43.42 0h36.18v36.18h-36.18z m43.42 0h36.18v36.18h-36.18z m43.42 0h36.18v36.18h-36.18z m-260.51-50.65V559h36.18v36.18z m0-43.42v-36.18h36.18v36.18z m43.42 0v-36.18h36.18v36.18z m0-43.42V472.2h36.18v36.18z m303.92 0V472.2h36.18v36.18z m0-43.42v-36.18h36.18V465z m0-43.41v-36.19h36.18v36.19zM601.16 465v-36.22h36.18V465z m0-43.41v-36.23h36.18v36.19z m0 0" fill="#0EBBCB" p-id="2329"></path><path d="M200.55 298.66c-41.4 21.6-36.66 60.06-36.71 61.31 0 0 0.39 2.67 0.38 2.72V664.2l-0.35 2c-0.46 6.06-2.17 41.26 36.63 61.55l0.83 0.44 0.46 0.25 247.92 142.87s15.51 9 16 9.15l0.84 0.7a65.31 65.31 0 0 0 25.35 8.08 71.29 71.29 0 0 0 8.2 0.43c11.36 0 23-2.79 34.76-8.14l255-146.35c11.72-8.8 42.36-36.77 42.79-62.4 0.06-0.23 0.06-13.64 0.06-13.89l-0.33-145.58 0.49-145.77v-14c-0.44-25.49-30.78-53.39-42.59-62.27L535.81 144.92c-11.73-5.36-23.31-8.09-34.51-8.14a69.21 69.21 0 0 0-8.49 0.47A62.15 62.15 0 0 0 469 144.9s-1.81 1.31-1.84 1.32c-0.53 0.18-16 9.07-16 9.08l-1.31 0.75zM168.07 238l260.2-148.86a114.53 114.53 0 0 1 14.1-8 135.76 135.76 0 0 1 58.19-13.26q3.45 0 6.91 0.15c19.74 0.92 39.51 6 58.89 15.16l2.46 1.28 258.85 148.91 1.36 0.94c7.08 5.07 64.69 47.66 72 107.58a107.23 107.23 0 0 1 0.79 13l-0.53 158.41 0.36 158.09a108.79 108.79 0 0 1-0.83 13.36c-7.44 59.86-65.09 102.3-72.24 107.36l-1.67 1.08-1.09 0.7S566.67 942.64 565.44 943.21c-19.36 9.13-39.16 14.23-59 15.16q-3.51 0.17-7 0.16a138.27 138.27 0 0 1-58.55-13.2 117.72 117.72 0 0 1-14.41-8L168 788.39c-63-33.24-72.66-88.85-73-116.87a128 128 0 0 1 0.43-13.72V368.64a128.56 128.56 0 0 1-0.43-13.76c0.37-28.04 10.08-83.65 73.07-116.88z" fill="#0EBBCB" opacity=".05" p-id="2330"></path><path d="M200.11 297.69c-41.07 21.43-37.06 59.38-37.22 61.5 0 0.1 0.36 2.64 0.35 2.73-0.09 0.94 0 15.18 0 15.2V650c0 0.07-0.1 14 0 14.92 0 0.07-0.33 1.94-0.32 2-0.34 6.68-1.5 41.54 37.11 61.75l0.83 0.44 0.46 0.25 248.58 143.3s15.1 8.76 16.1 9.12c0 0 0.82 0.67 0.85 0.68a68.11 68.11 0 0 0 25.48 7.89 74.41 74.41 0 0 0 8.22 0.39c11.39-0.11 23.08-2.87 34.84-8.25l255.11-146.4c11.35-8.52 42.32-36.51 43.18-62.59 0.13-0.47 0.17-13.46 0.17-14l-0.34-146.25 0.49-146.37c0-0.49 0-13.61-0.15-14.08-0.87-26-31.54-53.87-43-62.47L536.31 144c-11.74-5.37-23.35-8.13-34.59-8.24a70.12 70.12 0 0 0-8.51 0.43 65.7 65.7 0 0 0-23.93 7.46c-0.08 0-1.8 1.27-1.87 1.29-1.05 0.35-16.07 9-16.08 9l-1.31 0.77z m-31.45-58.77L428.21 90.43a119.22 119.22 0 0 1 14.07-8 135.23 135.23 0 0 1 58-13.47c2.29 0 4.59 0 6.89 0.14 19.69 0.87 39.42 5.92 58.75 15.06l2.39 1.24 258.8 148.91s1.29 0.9 1.35 0.94c7.18 5.16 64.58 47.7 71.48 107.27a115.46 115.46 0 0 1 0.74 13l-0.52 157.83 0.36 157.5a112.08 112.08 0 0 1-0.79 13.31C892.66 743.63 835.26 786 828 791.2l-1.66 1.08-1.08 0.69S566.16 941.69 565 942.23c-19.32 9.11-39.08 14.18-58.88 15.06-2.33 0.11-4.67 0.15-7 0.14A137.9 137.9 0 0 1 440.78 944a124.67 124.67 0 0 1-14.38-8L168.61 787.44c-62.67-33.07-72.24-88.63-72.39-116.53-0.11-5.44 0.16-10.94 0.41-13.66v-288a135.93 135.93 0 0 1-0.41-13.71c0.16-27.97 9.78-83.54 72.44-116.62z" fill="#0EBBCB" opacity=".1" p-id="2331"></path><path d="M199.66 296.73c-40.73 21.26-37.44 58.68-37.72 61.69 0 0.14 0.33 2.6 0.31 2.74-0.12 1.4 0 15.24 0 15.27v274.22c0 0.1-0.15 13.68 0 15 0 0.1-0.3 1.9-0.29 2-0.21 7.31-0.83 41.84 37.58 62l0.83 0.45 0.47 0.25L450.1 874s14.6 8.54 16.19 9.07c0 0 0.81 0.65 0.87 0.66a69.65 69.65 0 0 0 25.6 7.71 75.29 75.29 0 0 0 8.24 0.35 86.75 86.75 0 0 0 34.93-8.35L791.1 737c11-8.24 42.28-36.24 43.58-62.79 0.18-0.7 0.26-13.27 0.26-14l-0.34-146.91 0.49-147.08c0-0.74-0.06-13.43-0.25-14.14-1.3-26.42-32.31-54.35-43.37-62.66L536.81 143c-11.76-5.39-23.39-8.19-34.66-8.35a73.1 73.1 0 0 0-8.54 0.39 69.72 69.72 0 0 0-24 7.27c-0.12 0-1.79 1.23-1.9 1.26-1.57 0.53-16.13 9-16.15 9l-1.31 0.77z m-30.42-56.85L428.15 91.71a127.77 127.77 0 0 1 14-7.93 134.7 134.7 0 0 1 57.75-13.67q3.44 0 6.88 0.11c19.64 0.83 39.32 5.85 58.62 15l2.31 1.21 258.8 148.85s1.26 0.87 1.35 0.93c7.28 5.24 64.47 47.74 71 107a119.79 119.79 0 0 1 0.7 12.93l-0.52 157.26 0.36 156.92a118.06 118.06 0 0 1-0.74 13.25C892 742.63 834.85 785 827.44 790.26l-1.66 1.08-1.07 0.69s-259.06 148.7-260.17 149.22c-19.28 9.09-39 14.12-58.74 15q-3.51 0.15-7 0.13a137.23 137.23 0 0 1-58.11-13.62 130.11 130.11 0 0 1-14.34-8L169.19 786.49c-62.34-32.9-71.81-88.4-71.74-116.2-0.11-5.15 0.15-11 0.39-13.6V369.77c-0.24-2.58-0.5-8.48-0.39-13.65-0.06-27.82 9.43-83.34 71.79-116.24z" fill="#0EBBCB" opacity=".14" p-id="2332"></path><path d="M199.22 295.77c-40.4 21.08-37.83 58-38.23 61.87 0 0.19 0.3 2.57 0.28 2.75-0.17 1.87 0 15.31 0 15.35V651.3c0 0.13-0.21 13.31-0.06 15.06 0 0.14-0.28 1.88-0.26 2-0.09 7.93-0.16 42.12 38.06 62.16l0.83 0.45 0.47 0.25 249.98 144.15s14.16 8.32 16.27 9c0.06 0 0.81 0.63 0.88 0.65a72 72 0 0 0 25.72 7.52 73.93 73.93 0 0 0 8.27 0.3 87.71 87.71 0 0 0 35-8.45L791.7 737.91c10.61-8 42.24-36 44-63 0.25-0.93 0.36-13.08 0.36-14l-0.34-147.58 0.49-147.73c0-1-0.1-13.26-0.35-14.2-1.73-26.89-33.07-54.82-43.77-62.85L537.31 142c-11.77-5.4-23.43-8.23-34.74-8.44a71.54 71.54 0 0 0-8.55 0.34 73.35 73.35 0 0 0-24.17 7.1c-0.15 0.05-1.77 1.19-1.92 1.23-2.09 0.71-16.2 9-16.22 9l-1.32 0.78z m-29.4-54.94L428.08 93a136.94 136.94 0 0 1 14-7.92 134.09 134.09 0 0 1 57.54-13.88c2.28 0 4.56 0 6.86 0.1 19.58 0.79 39.23 5.77 58.49 14.88l2.23 1.16L826 236.18l1.34 0.93c7.37 5.32 64.35 47.78 70.52 106.65a124.41 124.41 0 0 1 0.67 12.89L898 513.33l0.36 156.33a125.05 125.05 0 0 1-0.7 13.21c-6.33 58.75-63.22 101.06-70.76 106.45-0.15 0.11-1.61 1.06-1.64 1.08l-1.08 0.68s-259 148.7-260.08 149.19c-19.24 9.07-38.92 14.07-58.61 14.86-2.33 0.1-4.65 0.13-7 0.11a136.77 136.77 0 0 1-57.9-13.82 135.09 135.09 0 0 1-14.29-8L169.78 785.54c-62-32.72-71.38-88.18-71.1-115.86-0.1-4.87 0.14-11.12 0.37-13.55V370.34c-0.23-2.44-0.47-8.73-0.37-13.61-0.28-27.73 9.1-83.17 71.14-115.9z" fill="#0EBBCB" opacity=".19" p-id="2333"></path><path d="M198.78 294.81c-40.07 20.91-38.22 57.29-38.74 62.05 0 0.24 0.27 2.54 0.25 2.77-0.22 2.33 0 15.37 0 15.42V652c0 0.17-0.25 12.94-0.07 15.14 0 0.17-0.25 1.85-0.23 2 0 8.56 0.51 42.41 38.53 62.37l0.84 0.45 0.47 0.25 250.66 144.51s13.7 8.11 16.34 9c0.08 0 0.8 0.61 0.89 0.63a74.38 74.38 0 0 0 25.85 7.34 77.13 77.13 0 0 0 8.29 0.26 89 89 0 0 0 35.1-8.55L792.3 738.82c10.24-7.67 42.2-35.71 44.37-63.18 0.3-1.16 0.45-12.9 0.45-14.11l-0.34-148.24 0.49-148.39c0-1.23-0.14-13.08-0.44-14.25-2.17-27.36-33.85-55.3-44.17-63l-254.85-146.6c-11.79-5.41-23.47-8.27-34.81-8.54a74.65 74.65 0 0 0-8.58 0.3c-13.56 1.38-22.52 6.3-24.28 6.89-0.19 0.06-1.76 1.15-1.94 1.21-2.62 0.87-16.27 8.9-16.3 8.92l-1.32 0.79z m-28.37-53L428 94.29a141.72 141.72 0 0 1 14-7.91 133.27 133.27 0 0 1 57.31-14.08c2.26 0 4.55 0 6.84 0.08 19.53 0.74 39.14 5.7 58.35 14.78l2.16 1.12 258.76 148.83s1.18 0.82 1.32 0.93c7.48 5.4 64.25 47.82 70.06 106.35 0.41 3.25 0.62 9.45 0.62 12.83l-0.52 156.1 0.36 155.75c0 3.47-0.22 9.83-0.65 13.16-6 58.39-62.6 100.65-70.27 106.15-0.18 0.14-1.59 1-1.63 1.08l-1.07 0.68s-259 148.68-260 149.14c-19.21 9.06-38.85 14-58.48 14.78q-3.5 0.12-7 0.08a135.74 135.74 0 0 1-57.68-14 141.28 141.28 0 0 1-14.25-8L170.36 784.58c-61.71-32.54-71-88-70.45-115.52-0.1-4.58 0.13-11.2 0.34-13.49V370.9c-0.21-2.29-0.44-9-0.34-13.55-0.5-27.6 8.77-83.01 70.5-115.57z" fill="#0EBBCB" opacity=".24" p-id="2334"></path><path d="M198.34 293.85c-39.74 20.73-38.62 56.6-39.24 62.23 0 0.29 0.23 2.51 0.2 2.78-0.26 2.8 0 15.44 0.06 15.5V652.6c0 0.21-0.31 12.58-0.09 15.21 0 0.2-0.23 1.83-0.2 2 0.16 9.19 1.18 42.71 39 62.58l0.85 0.45 0.46 0.25 251.3 144.93S463.93 886 467.1 887c0.1 0 0.8 0.58 0.9 0.62a76.69 76.69 0 0 0 26 7.15 78 78 0 0 0 8.32 0.22 90.28 90.28 0 0 0 35.17-8.65l255.41-146.6c9.87-7.4 42.16-35.46 44.76-63.39 0.37-1.39 0.55-12.71 0.55-14.16l-0.35-148.91 0.5-149c0-1.48-0.17-12.9-0.54-14.31-2.6-27.82-34.61-55.77-44.57-63.24L538.31 140.09c-11.8-5.42-23.51-8.32-34.89-8.64a73.22 73.22 0 0 0-8.6 0.25c-13.34 1.29-22.3 6-24.4 6.7-0.22 0.07-1.75 1.1-2 1.18-3.15 1-16.34 8.86-16.37 8.89l-1.32 0.8zM171 242.74L428 95.58a152.4 152.4 0 0 1 13.93-7.9A132.58 132.58 0 0 1 499 73.39q3.39 0 6.83 0.07c19.48 0.69 39 5.62 58.22 14.68l2.08 1.08 258.72 148.83s1.15 0.79 1.32 0.92c7.58 5.48 64.14 47.86 69.58 106 0.39 3.05 0.58 9.62 0.58 12.79l-0.51 155.52 0.36 155.16c0 3.25-0.21 10-0.61 13.11-5.58 58-62 100.24-69.78 105.85-0.22 0.17-1.57 1-1.62 1.08l-1.06 0.68s-259 148.67-259.91 149.1c-19.17 9-38.77 14-58.35 14.68q-3.5 0.12-6.94 0.07a134.8 134.8 0 0 1-57.46-14.24 154 154 0 0 1-14.21-8L171 783.63c-61.39-32.36-70.53-87.72-69.81-115.18-0.09-4.29 0.12-11.29 0.32-13.44V371.47c-0.2-2.16-0.41-9.2-0.32-13.5-0.76-27.49 8.39-82.86 69.81-115.23z" fill="#0EBBCB" opacity=".29" p-id="2335"></path><path d="M197.89 292.89c-39.4 20.56-39 55.9-39.74 62.41-0.05 0.34 0.2 2.48 0.17 2.8-0.3 3.27 0.05 15.5 0.06 15.57l0.07 2v276.57l-0.07 1c0 0.24-0.36 12.21-0.1 15.27 0 0.24-0.2 1.81-0.18 2.06 0.29 9.81 1.86 43 39.49 62.78l0.85 0.45 0.46 0.26 252 145.34s12.8 7.67 16.49 8.91c0.11 0 0.79 0.55 0.91 0.59a78.37 78.37 0 0 0 26.11 7 76.1 76.1 0 0 0 8.34 0.19 91.31 91.31 0 0 0 35.25-8.77l255.5-146.67c9.5-7.12 42.12-35.2 45.16-63.58 0.43-1.63 0.65-12.53 0.65-14.22L839 513.28l0.5-149.71c0-1.71-0.21-12.71-0.64-14.36-3-28.29-35.38-56.25-45-63.43l-255-146.66a91 91 0 0 0-35-8.74 76.11 76.11 0 0 0-8.62 0.21c-13.14 1.21-22.09 5.72-24.52 6.51-0.26 0.08-1.74 1.06-2 1.15-3.67 1.23-16.4 8.82-16.44 8.85l-1.32 0.81z m-26.32-49.2L427.9 96.87c1.84-1.24 9.5-5.79 13.89-7.88a131.33 131.33 0 0 1 56.89-14.5c2.25 0 4.52 0 6.81 0.05 19.43 0.64 39 5.54 58.08 14.58l2 1L824.29 239l1.31 0.92c7.68 5.56 64 47.9 69.11 105.73 0.36 2.85 0.53 9.78 0.53 12.74l-0.51 155 0.37 154.57c0 3-0.2 10.15-0.58 13.07-5.2 57.65-61.34 99.82-69.28 105.55-0.25 0.19-1.54 1-1.61 1.07l-1.06 0.67s-259 148.67-259.82 149.07c-19.13 9-38.69 13.92-58.22 14.58q-3.48 0.11-6.92 0.05a133.74 133.74 0 0 1-57.24-14.45 161.61 161.61 0 0 1-14.18-8L171.53 782.68c-61.07-32.19-70.1-87.5-69.16-114.85-0.09-4 0.11-11.38 0.3-13.38V372c-0.19-2-0.39-9.43-0.3-13.45-0.93-27.34 8.11-82.66 69.2-114.86z" fill="#0EBBCB" opacity=".33" p-id="2336"></path><path d="M197.45 291.92c-39.07 20.39-39.39 55.21-40.25 62.6 0 0.39 0.17 2.44 0.13 2.81-0.34 3.74 0.07 15.57 0.07 15.65l0.08 2v277.91l-0.08 1c0 0.27-0.4 11.84-0.11 15.35 0 0.27-0.18 1.78-0.15 2.06 0.41 10.44 2.53 43.28 40 63l0.86 0.46 0.46 0.25 252.61 145.77s12.35 7.45 16.57 8.87c0.13 0 0.78 0.53 0.92 0.58A80.66 80.66 0 0 0 494.8 897a76.82 76.82 0 0 0 8.36 0.14 92.59 92.59 0 0 0 35.34-8.85l255.6-146.73c9.14-6.84 42.09-34.93 45.55-63.78 0.49-1.86 0.75-12.34 0.75-14.28l-0.4-150.22 0.5-150.37c0-2-0.25-12.54-0.74-14.41-3.47-28.76-36.14-56.73-45.36-63.63L539.31 138.16a92 92 0 0 0-35-8.85 81.9 81.9 0 0 0-8.64 0.16c-12.93 1.13-21.87 5.44-24.63 6.33-0.31 0.09-1.73 1-2 1.12-4.19 1.4-16.47 8.79-16.51 8.82l-1.32 0.81z m-25.3-47.28L427.84 98.16c1.71-1.15 9.78-5.93 13.86-7.87a130.35 130.35 0 0 1 56.67-14.71h6.79c19.37 0.59 38.85 5.46 57.95 14.49l1.93 1 258.69 148.8 1.3 0.92c7.77 5.64 63.91 47.94 68.63 105.42 0.33 2.65 0.5 9.95 0.5 12.7l-0.51 154.37 0.36 154c0 2.82-0.18 10.31-0.53 13-4.83 57.28-60.72 99.41-68.78 105.25-0.3 0.22-1.53 1-1.6 1.07l-1.06 0.67S563.1 936 562.3 936.34c-19.09 9-38.6 13.87-58.08 14.48q-3.48 0.1-6.91 0a132.66 132.66 0 0 1-57-14.65c-4.22-2-12.44-6.85-14.13-8l-254-146.49c-60.76-32-69.68-87.27-68.53-114.51-0.07-3.72 0.11-11.47 0.29-13.33V372.6c-0.18-1.87-0.36-9.67-0.28-13.4-1.21-27.26 7.73-82.53 68.49-114.56z" fill="#0EBBCB" opacity=".38" p-id="2337"></path><path d="M197 291c-38.74 20.21-39.79 54.52-40.76 62.78-0.06 0.44 0.14 2.41 0.1 2.83-0.39 4.2 0.07 15.63 0.08 15.72l0.08 2v279.21l-0.08 1c-0.05 0.31-0.46 11.48-0.13 15.42 0 0.31-0.15 1.75-0.12 2.07 0.54 11.07 3.2 43.57 40.43 63.2l0.87 0.46 0.46 0.25 253.33 146.19s11.9 7.24 16.65 8.83c0.15 0 0.78 0.51 0.93 0.56a82.13 82.13 0 0 0 26.37 6.59 77.49 77.49 0 0 0 8.38 0.1 93.64 93.64 0 0 0 35.42-9L794.7 742.47c8.77-6.56 42-34.67 45.95-64 0.55-2.1 0.84-12.15 0.84-14.34l-0.36-150.89 0.5-151c0-2.2-0.28-12.36-0.84-14.47-3.9-29.22-36.91-57.2-45.75-63.82L539.81 137.19a93.2 93.2 0 0 0-35.11-8.94 82.87 82.87 0 0 0-8.67 0.11c-12.71 1-21.64 5.15-24.75 6.14-0.34 0.1-1.71 1-2 1.09-4.72 1.58-16.54 8.75-16.59 8.78l-1.32 0.83z m-24.26-45.4l255-146.15c1.58-1.07 10.05-6.07 13.82-7.86a129 129 0 0 1 56.45-14.91c2.24-0.06 4.5-0.05 6.78 0 19.32 0.56 38.76 5.39 57.82 14.4l1.84 1 258.72 148.76c0.07 0.06 1 0.72 1.29 0.92 7.87 5.72 63.8 48 68.15 105.12 0.31 2.44 0.46 10.11 0.46 12.64l-0.51 153.79 0.37 153.4c0 2.61-0.16 10.47-0.49 13-4.46 56.92-60.09 99-68.29 105-0.33 0.24-1.51 1-1.59 1.08l-1 0.65S562.59 935 561.85 935.36c-19.05 9-38.52 13.82-58 14.38-2.31 0.06-4.61 0.07-6.88 0a131.32 131.32 0 0 1-56.82-14.87c-3.9-1.83-12.53-6.92-14.09-8L172.7 780.77c-60.43-31.83-69.25-87-67.88-114.17-0.07-3.43 0.1-11.55 0.26-13.27V373.16c-0.16-1.72-0.33-9.9-0.26-13.34-1.36-27.16 7.47-82.37 67.92-114.22z" fill="#0EBBCB" opacity=".43" p-id="2338"></path><path d="M196.57 290c-38.41 20-40.18 53.82-41.27 63-0.06 0.49 0.1 2.38 0.06 2.84-0.42 4.67 0.08 15.71 0.09 15.8l0.1 2v280.55l-0.1 1c0 0.34-0.5 11.1-0.14 15.49 0 0.34-0.13 1.72-0.09 2.08 0.66 11.69 3.87 43.86 40.91 63.4l0.86 0.46 0.47 0.25 254 146.58s11.45 7 16.72 8.78c0.17 0.06 0.77 0.49 0.95 0.55a84.23 84.23 0 0 0 26.49 6.4 80.79 80.79 0 0 0 8.4 0.06 95.12 95.12 0 0 0 35.51-9.06l255.77-146.8c8.4-6.28 42-34.41 46.34-64.17 0.61-2.33 0.94-12 0.94-14.39l-0.36-151.55 0.5-151.68c0-2.45-0.32-12.18-0.93-14.53-4.34-29.69-37.68-57.68-46.15-64L540.31 136.23a94.43 94.43 0 0 0-35.19-9 83.31 83.31 0 0 0-8.68 0.07c-12.51 0.95-21.43 4.87-24.87 5.95-0.38 0.12-1.7 0.94-2.06 1.06-5.24 1.69-16.61 8.69-16.66 8.69l-1.33 0.83z m-23.25-43.45l254.4-145.82c1.44-1 10.33-6.19 13.78-7.84a128 128 0 0 1 56.24-15.12q3.35-0.09 6.76 0c19.27 0.51 38.66 5.32 57.68 14.3L564 93l258.6 148.78 1.29 0.91c8 5.8 63.68 48 67.68 104.81 0.28 2.24 0.41 10.27 0.41 12.6l-0.5 153.21 0.36 152.81c0 2.39-0.14 10.63-0.44 12.93-4.09 56.54-59.47 98.58-67.8 104.64-0.37 0.27-1.49 1-1.58 1.08l-1 0.65s-258.89 148.64-259.56 149c-19 9-38.45 13.78-57.82 14.29q-3.48 0.09-6.87 0a130.07 130.07 0 0 1-56.6-15.07c-3.58-1.68-12.63-7-14.05-8L173.29 779.82C113.17 748.17 104.46 693 106.05 666c-0.06-3.15 0.09-11.65 0.24-13.22v-279c-0.15-1.58-0.3-10.14-0.24-13.3-1.58-27.09 7.14-82.26 67.27-113.93z" fill="#0EBBCB" opacity=".48" p-id="2339"></path><path d="M196.12 289c-38.06 19.86-40.56 53.13-41.77 63.14-0.07 0.54 0.07 2.35 0 2.86-0.47 5.13 0.09 15.77 0.1 15.86l0.1 2.07v281.91l-0.1 1a150.31 150.31 0 0 0-0.15 15.56c0 0.37-0.11 1.7-0.07 2.09 0.79 12.32 4.54 44.15 41.38 63.61l0.87 0.46 0.47 0.26 254.67 147s11 6.8 16.8 8.74c0.18 0.07 0.77 0.47 1 0.53a85.68 85.68 0 0 0 26.58 6.24 79 79 0 0 0 8.43 0 96.36 96.36 0 0 0 35.57-9.14l255.9-146.9c8-6 42-34.14 46.74-64.37 0.67-2.56 1-11.77 1-14.44l-0.36-152.22 0.51-152.33c0-2.7-0.37-12-1-14.58-4.77-30.16-38.45-58.16-46.55-64.21L540.81 135.26a95.68 95.68 0 0 0-35.26-9.14 81.51 81.51 0 0 0-8.71 0c-12.29 0.87-21.21 4.58-25 5.76-0.41 0.13-1.69 0.9-2.08 1-5.77 1.93-16.67 8.67-16.73 8.71l-1.33 0.84z m-22.22-41.5L427.66 102c1.31-0.88 10.61-6.33 13.75-7.83a126.51 126.51 0 0 1 56-15.32c2.22-0.07 4.47-0.07 6.74 0 19.22 0.46 38.57 5.24 57.55 14.2l1.69 0.89L822 242.71l1.28 0.91c8.06 5.88 63.57 48.06 67.2 104.5 0.26 2 0.37 10.44 0.37 12.55l-0.5 152.64 0.37 152.23c0 2.16-0.13 10.79-0.4 12.87-3.72 56.18-58.85 98.17-67.31 104.34-0.4 0.3-1.47 1-1.57 1.08l-1 0.65S561.57 933.1 561 933.39c-19 9-38.37 13.72-57.69 14.19h-6.85a128.45 128.45 0 0 1-56.46-15.3c-3.25-1.52-12.71-7.08-14-7.94L173.88 778.87c-59.81-31.48-68.4-86.59-66.6-113.5-0.06-2.86 0.08-11.73 0.22-13.16V374.29c-0.14-1.44-0.28-10.37-0.22-13.24-1.8-26.93 6.81-82.05 66.62-113.55z" fill="#0EBBCB" opacity=".52" p-id="2340"></path><path d="M195.68 288.08c-37.73 19.69-41 52.43-42.28 63.32-0.07 0.59 0 2.32 0 2.87a141.77 141.77 0 0 0 0.11 15.94l0.12 2.08v283.2l-0.12 1a137.84 137.84 0 0 0-0.16 15.63c0 0.41-0.09 1.68 0 2.1 0.91 13 5.21 44.44 41.85 63.82l0.88 0.47 0.47 0.25 255.3 147.43s10.54 6.58 16.87 8.71c0.2 0.06 0.76 0.44 1 0.5a86.65 86.65 0 0 0 26.74 6 82.25 82.25 0 0 0 8.45 0 97.62 97.62 0 0 0 35.68-9.26L796.5 745.2c7.66-5.72 41.93-33.88 47.13-64.56 0.73-2.79 1.14-11.59 1.14-14.5l-0.38-152.88 0.52-153c0-2.94-0.4-11.82-1.14-14.64-5.2-30.62-39.21-58.63-46.94-64.4L541.31 134.29a97.07 97.07 0 0 0-35.31-9.24 84.83 84.83 0 0 0-8.73 0c-12.08 0.78-21 4.29-25.1 5.57-0.45 0.14-1.68 0.86-2.11 1-6.29 2.11-16.74 8.63-16.8 8.68l-1.33 0.84z m-21.2-39.62L427.6 103.31c1.18-0.8 10.89-6.47 13.71-7.81a124.91 124.91 0 0 1 55.8-15.5q3.33-0.1 6.73 0c19.16 0.41 38.47 5.16 57.42 14.11l1.61 0.84 258.61 148.69 1.27 0.91c8.16 6 63.46 48.1 66.72 104.19 0.24 1.83 0.34 10.61 0.34 12.51l-0.5 152 0.36 151.75c0 1.95-0.11 10.95-0.35 12.82-3.35 55.81-58.22 97.76-66.81 104-0.45 0.33-1.46 1-1.56 1.08l-1.05 0.64S561.06 932.15 560.51 932.41c-19 8.93-38.29 13.67-57.56 14.09q-3.45 0.07-6.83 0A127.1 127.1 0 0 1 440 931c-2.92-1.38-12.8-7.16-14-7.94L174.46 777.92c-59.48-31.3-68-86.36-65.95-113.16-0.05-2.58 0.07-11.82 0.19-13.11V374.86c-0.12-1.3-0.24-10.61-0.19-13.19-2.02-26.83 6.49-81.89 65.97-113.21z" fill="#0EBBCB" opacity=".57" p-id="2341"></path><path d="M195.24 287.12c-37.4 19.51-41.35 51.74-42.79 63.5-0.08 0.64 0 2.29 0 2.89a126.33 126.33 0 0 0 0.12 16l0.12 2.09v284.54l-0.12 1.05a126.3 126.3 0 0 0-0.18 15.7c0 0.44-0.07 1.65 0 2.11 1 13.57 5.88 44.73 42.33 64l0.88 0.47 0.47 0.25L452 887.55s10.1 6.36 16.95 8.66c0.22 0.07 0.76 0.42 1 0.49a88.35 88.35 0 0 0 26.87 5.85c2.76 0.12 5.59 0.09 8.47-0.07a99.07 99.07 0 0 0 35.76-9.36l256-147c7.29-5.44 41.89-33.61 47.53-64.76 0.79-3 1.23-11.4 1.23-14.55l-0.38-153.54 0.57-153.66c0-3.19-0.44-11.65-1.24-14.7-5.64-31.09-40-59.1-47.34-64.59l-255.61-147A98.2 98.2 0 0 0 506.4 124a85.41 85.41 0 0 0-8.75-0.06c-11.88 0.69-20.78 4-25.22 5.38-0.5 0.15-1.67 0.82-2.13 1-6.82 2.29-16.81 8.59-16.88 8.64l-1.33 0.86z m-20.17-37.71L427.54 104.6c1-0.71 11.16-6.61 13.67-7.8a123.38 123.38 0 0 1 55.59-15.74q3.3-0.12 6.71 0c19.11 0.36 38.38 5.08 57.28 14l1.54 0.8 258.58 148.72c0.11 0.07 0.88 0.61 1.27 0.9 8.26 6 63.35 48.14 66.25 103.89 0.2 1.62 0.29 10.76 0.29 12.45l-0.5 151.48 0.37 151.06c0 1.73-0.1 11.11-0.31 12.78-3 55.44-57.6 97.34-66.32 103.73-0.48 0.36-1.43 1-1.55 1.08l-1 0.64S560.55 931.2 560.06 931.43c-18.91 8.91-38.21 13.62-57.42 14h-6.82a125.24 125.24 0 0 1-55.95-15.7c-2.6-1.22-12.89-7.23-13.93-7.93L175.05 777c-59.17-31.13-67.55-86.14-65.31-112.83 0-2.28 0.06-11.9 0.17-13V375.42c-0.11-1.15-0.22-10.84-0.17-13.14-2.24-26.71 6.15-81.72 65.33-112.87z" fill="#0EBBCB" opacity=".62" p-id="2342"></path><path d="M194.8 286.15c-37.07 19.35-41.74 51.05-43.3 63.69-0.08 0.69 0 2.26-0.08 2.9a120.7 120.7 0 0 0 0.13 16.09l0.14 2.11v285.84l-0.14 1.06a117 117 0 0 0-0.19 15.77v2.12c1.17 14.2 6.56 45 42.81 64.23l0.89 0.47 0.47 0.26L452.24 888.9c0.05 0 9.64 6.14 17 8.62 0.23 0.08 0.75 0.4 1 0.47a89.41 89.41 0 0 0 27 5.67c2.77 0.11 5.61 0.06 8.5-0.11a100.32 100.32 0 0 0 35.84-9.47L797.7 747c6.93-5.15 41.86-33.35 47.92-64.95 0.86-3.26 1.33-11.22 1.33-14.61l-0.38-154.21 0.52-154.3c0-3.43-0.47-11.47-1.33-14.75-6.08-31.54-40.76-59.57-47.76-64.77l-255.71-147a99.46 99.46 0 0 0-35.49-9.44 86 86 0 0 0-8.77-0.11c-11.66 0.6-20.56 3.71-25.34 5.19-0.53 0.16-1.65 0.78-2.15 0.94-7.34 2.46-16.88 8.55-16.95 8.6l-1.33 0.87z m-19.15-35.79l251.83-144.47c0.92-0.62 11.44-6.74 13.64-7.79a121.8 121.8 0 0 1 55.37-15.95c2.19-0.08 4.43-0.1 6.69-0.07 19.06 0.33 38.29 5 57.15 13.92l1.46 0.77 258.56 148.74c0.11 0.08 0.84 0.59 1.26 0.9 8.36 6.12 63.23 48.18 65.77 103.58 0.18 1.42 0.25 10.93 0.25 12.41l-0.49 150.9 0.36 150.47c0 1.52-0.08 11.27-0.27 12.73-2.6 55.07-57 96.93-65.82 103.43-0.52 0.39-1.41 1-1.54 1.08l-1 0.63s-258.79 148.6-259.23 148.8c-18.87 8.9-38.13 13.57-57.29 13.9-2.3 0-4.57 0-6.8-0.07a123.61 123.61 0 0 1-55.74-15.9c-2.27-1.07-13-7.32-13.88-7.92L175.63 776c-58.85-30.94-67.12-85.9-64.66-112.48 0-2 0-12 0.15-13V376c-0.1-1-0.19-11.07-0.15-13.08-2.46-26.62 5.82-81.59 64.68-112.56z" fill="#0EBBCB" opacity=".67" p-id="2343"></path><path d="M194.35 285.19c-36.73 19.17-42.12 50.36-43.8 63.87-0.09 0.74-0.05 2.22-0.11 2.92a108.88 108.88 0 0 0 0.14 16.16l0.14 2.12v287.17l-0.14 1.06a108.31 108.31 0 0 0-0.21 15.84v2.14c1.29 14.82 7.23 45.3 43.29 64.43l0.89 0.47 0.47 0.26 257.41 148.62c0.05 0 9.19 5.93 17.1 8.58 0.25 0.09 0.74 0.37 1 0.46a89.8 89.8 0 0 0 27.13 5.47 84 84 0 0 0 8.52-0.15 101.65 101.65 0 0 0 35.92-9.56l256.2-147.11c6.56-4.88 41.82-33.1 48.32-65.16 0.91-3.49 1.42-11 1.42-14.66l-0.38-154.87 0.52-155c0-3.68-0.51-11.29-1.43-14.81-6.51-32-41.52-60.06-48.13-65L542.82 131.4a100.94 100.94 0 0 0-35.57-9.55 86.67 86.67 0 0 0-8.8-0.15 96.57 96.57 0 0 0-25.45 5c-0.57 0.17-1.64 0.74-2.18 0.92-7.86 2.63-16.94 8.5-17 8.56l-1.33 0.87z m-18.12-33.87l251.19-144.14c0.78-0.54 11.72-6.88 13.6-7.78a120 120 0 0 1 55.15-16.15q3.29-0.14 6.68-0.09c19 0.28 38.19 4.94 57 13.82l1.39 0.73 258.55 148.73 1.25 0.9c8.45 6.2 63.12 48.22 65.3 103.27 0.15 1.22 0.2 11.1 0.2 12.37l-0.49 150.32 0.37 149.88c0 1.3-0.06 11.43-0.23 12.68-2.19 54.71-56.35 96.53-65.33 103.14-0.55 0.42-1.39 1-1.53 1.08l-1 0.63S559.54 929.29 559.17 929.46c-18.84 8.87-38.06 13.52-57.16 13.8q-3.45 0-6.79-0.08a121.81 121.81 0 0 1-55.52-16.12c-1.95-0.91-13.06-7.39-13.84-7.91L176.22 775.06c-58.54-30.77-66.7-85.68-64-112.15 0-1.71 0-12.08 0.13-12.94V376.55c-0.08-0.86-0.17-11.31-0.13-13-2.69-26.55 5.48-81.44 64.01-112.23z" fill="#0EBBCB" opacity=".71" p-id="2344"></path><path d="M193.91 284.23c-36.4 19-42.51 49.66-44.31 64-0.09 0.79-0.08 2.19-0.14 2.93a100.89 100.89 0 0 0 0.14 16.24l0.15 2.13v288.5l-0.15 1.07a101 101 0 0 0-0.22 15.91c0 0.54 0 1.57 0.07 2.14 1.41 15.45 7.9 45.59 43.76 64.64l0.89 0.47 0.48 0.26 258 149a88.5 88.5 0 0 0 17.18 8.53c0.27 0.09 0.74 0.35 1 0.44a90.34 90.34 0 0 0 27.25 5.29 84.52 84.52 0 0 0 8.54-0.19 102.82 102.82 0 0 0 36-9.67L798.9 748.85c6.19-4.6 41.78-32.83 48.71-65.35a73.93 73.93 0 0 0 1.52-14.73l-0.38-155.53 0.52-155.62a75.23 75.23 0 0 0-1.53-14.86c-6.94-32.49-42.28-60.53-48.53-65.17L543.32 130.43a102.48 102.48 0 0 0-35.65-9.65q-4.49-0.32-8.81-0.19a96.19 96.19 0 0 0-25.58 4.81c-0.6 0.18-1.63 0.69-2.2 0.89a86.29 86.29 0 0 0-17.08 8.52l-1.35 0.88z m-17.09-32l250.54-143.77c0.65-0.44 12-7 13.56-7.76a118.31 118.31 0 0 1 54.94-16.36c2.18-0.09 4.4-0.13 6.66-0.1 19 0.23 38.1 4.86 56.88 13.73l1.31 0.68 258.52 148.73 1.24 0.89c8.55 6.29 63 48.26 64.82 103 0.13 1 0.17 11.26 0.17 12.32l-0.46 149.7 0.37 149.3c0 1.09-0.05 11.59-0.19 12.64-1.86 54.34-55.72 96.11-64.84 102.83-0.58 0.43-1.37 1-1.51 1.07l-1 0.63S559 928.34 558.72 928.48c-18.8 8.85-38 13.47-57 13.7-2.29 0-4.55 0-6.77-0.1a119.9 119.9 0 0 1-55.3-16.32c-1.63-0.77-13.16-7.47-13.8-7.9l-249-143.75c-58.21-30.59-66.27-85.46-63.37-111.81 0-1.43 0-12.17 0.1-12.89v-272.3c-0.06-0.71-0.13-11.54-0.1-13-2.94-26.36 5.12-81.22 63.34-111.84z" fill="#0EBBCB" opacity=".76" p-id="2345"></path><path d="M193.47 283.27c-36.07 18.82-42.91 49-44.81 64.23-0.11 0.84-0.12 2.16-0.19 2.95a95 95 0 0 0 0.16 16.31l0.16 2.14v289.83l-0.16 1.07a93 93 0 0 0-0.24 16c0.05 0.58 0 1.55 0.1 2.15 1.54 16.08 8.57 45.89 44.23 64.85l0.9 0.48 0.47 0.25L452.82 893a84.29 84.29 0 0 0 17.25 8.49c0.28 0.1 0.73 0.33 1 0.43a91.16 91.16 0 0 0 27.38 5.1c2.81 0.07 5.67 0 8.56-0.23a104.26 104.26 0 0 0 36.12-9.79L799.5 749.76c5.82-4.32 41.74-32.57 49.11-65.55a70.88 70.88 0 0 0 1.61-14.78l-0.38-156.19 0.52-156.24a70.79 70.79 0 0 0-1.63-14.91c-7.37-33-43.05-61-48.92-65.37l-256-147.22a103.65 103.65 0 0 0-35.72-9.74q-4.49-0.34-8.84-0.25a96.13 96.13 0 0 0-25.69 4.63c-0.64 0.2-1.62 0.65-2.23 0.86a81.4 81.4 0 0 0-17.15 8.49l-1.35 0.89z m-16.07-30l249.89-143.52c0.53-0.35 12.28-7.15 13.54-7.74a116.08 116.08 0 0 1 54.72-16.57c2.17-0.1 4.39-0.14 6.64-0.12 18.9 0.18 38 4.78 56.75 13.63l1.23 0.64 258.49 148.72c0.14 0.1 0.73 0.51 1.24 0.89 8.65 6.37 62.89 48.3 64.34 102.66 0.11 0.81 0.13 11.42 0.13 12.27l-0.49 149.16 0.37 148.71c0 0.87 0 11.76-0.14 12.59-1.49 54-55.1 95.7-64.34 102.53-0.63 0.46-1.36 1-1.51 1.07l-1 0.62s-258.72 148.57-259 148.69c-18.76 8.83-37.89 13.42-56.9 13.6q-3.44 0-6.75-0.12a117.65 117.65 0 0 1-55.08-16.53c-1.3-0.61-13.25-7.54-13.77-7.89l-248.37-143.4c-57.9-30.42-65.84-85.23-62.74-111.47 0-1.15 0-12.27 0.09-12.84V377.68c0-0.58-0.11-11.78-0.09-12.93-3.1-26.27 4.85-81.08 62.75-111.52z" fill="#0EBBCB" opacity=".81" p-id="2346"></path><path d="M193 282.31c-35.73 18.65-43.29 48.27-45.31 64.41-0.11 0.89-0.15 2.13-0.22 3a88.51 88.51 0 0 0 0.16 16.39l0.17 2.15v291.12l-0.17 1.07a88.4 88.4 0 0 0-0.25 16.06c0 0.61 0.06 1.52 0.13 2.16 1.66 16.7 9.24 46.17 44.71 65.05l0.9 0.48 0.47 0.26L453 894.31a81.05 81.05 0 0 0 17.33 8.46c0.3 0.1 0.73 0.3 1 0.4a91.08 91.08 0 0 0 27.5 4.92c2.84 0 5.7-0.05 8.59-0.27a105.73 105.73 0 0 0 36.22-9.82L800.1 750.67c5.45-4 41.7-32.3 49.5-65.75a66.94 66.94 0 0 0 1.72-14.83l-0.4-156.86 0.53-156.93a67.53 67.53 0 0 0-1.73-15c-7.8-33.43-43.81-61.49-49.32-65.56L544.32 128.5a105 105 0 0 0-35.8-9.85c-3-0.24-5.94-0.33-8.86-0.29a94.8 94.8 0 0 0-25.8 4.44c-0.69 0.21-1.61 0.61-2.25 0.83a78.2 78.2 0 0 0-17.23 8.45L453 133z m-15-28.13L427.23 111c0.4-0.26 12.56-7.28 13.5-7.73a114.23 114.23 0 0 1 54.5-16.78c2.17-0.1 4.38-0.15 6.63-0.13 18.85 0.14 37.91 4.71 56.61 13.53l1.15 0.61L818.1 249.24l1.23 0.89c8.74 6.45 62.78 48.34 63.87 102.35 0.08 0.61 0.08 11.59 0.08 12.22l-0.48 148.59 0.37 148.12c0 0.65 0 11.92-0.1 12.54-1.12 53.61-54.48 95.29-63.85 102.23-0.66 0.49-1.34 1-1.5 1.07l-1 0.62S558 926.43 557.82 926.52c-18.73 8.81-37.81 13.36-56.76 13.5-2.29 0-4.54 0-6.74-0.13a115.86 115.86 0 0 1-54.87-16.74c-1-0.46-13.33-7.63-13.72-7.89L178 772.2c-57.58-30.23-65.41-85-62.09-111.13 0-0.86 0-12.35 0.07-12.78v-270c0-0.43-0.08-12-0.07-12.87-3.35-26.21 4.49-80.98 62.09-111.24z" fill="#0EBBCB" opacity=".86" p-id="2347"></path><path d="M192.58 281.34c-35.4 18.48-43.68 47.58-45.82 64.6-0.12 0.94-0.18 2.1-0.26 3a83.08 83.08 0 0 0 0.17 16.46l0.19 2.16V660l-0.19 1.08a83 83 0 0 0-0.26 16.12c0.05 0.65 0.08 1.5 0.16 2.17 1.78 17.33 9.91 46.46 45.18 65.26l0.91 0.48 0.47 0.26 260.08 150.3a78.07 78.07 0 0 0 17.4 8.41c0.32 0.11 0.72 0.28 1.05 0.39a92.34 92.34 0 0 0 27.63 4.73q4.27 0 8.61-0.32a107 107 0 0 0 36.26-10l256.54-147.3c5.08-3.76 41.66-32 49.9-65.94a64.08 64.08 0 0 0 1.81-14.89L852 513.23l0.53-157.59a65.21 65.21 0 0 0-1.82-15c-8.25-33.89-44.59-62-49.72-65.75L544.82 127.53a106.46 106.46 0 0 0-35.82-9.94q-4.49-0.39-8.88-0.34a93.32 93.32 0 0 0-25.93 4.25c-0.72 0.22-1.59 0.57-2.27 0.8a74.92 74.92 0 0 0-17.3 8.42l-1.35 0.9z m-14-26.21l248.61-142.8c0.27-0.18 12.84-7.42 13.46-7.72a112.29 112.29 0 0 1 54.29-17c2.16-0.11 4.36-0.17 6.61-0.15 18.79 0.09 37.81 4.63 56.48 13.43l1.07 0.57 258.44 148.71 1.22 0.89c8.84 6.53 62.67 48.38 63.39 102 0.05 0.41 0.05 11.75 0.05 12.18l-0.49 148 0.37 147.53c0 0.44 0 12.08-0.05 12.49-0.75 53.24-53.85 94.88-63.36 101.93-0.7 0.52-1.32 1-1.49 1.07l-1 0.61S557.5 925.48 557.37 925.53c-18.69 8.8-37.73 13.32-56.63 13.41q-3.42 0-6.72-0.15c-29.69-1.55-49.74-13.79-54.65-16.95-0.65-0.3-13.42-7.7-13.68-7.87L178.56 771.25c-57.26-30.06-65-84.77-61.45-110.79V378.81c0-0.29-0.06-12.25 0-12.83-3.54-26.04 4.19-80.76 61.45-110.85z" fill="#0EBBCB" opacity=".9" p-id="2348"></path><path d="M192.14 280.38c-35.07 18.3-44.08 46.89-46.33 64.78-0.13 1-0.21 2.07-0.29 3a77.33 77.33 0 0 0 0.18 16.54l0.19 2.17v293.81l-0.19 1.08a77.06 77.06 0 0 0-0.28 16.19c0.06 0.68 0.11 1.47 0.19 2.18 1.91 18 10.58 46.75 45.65 65.47l0.92 0.48 0.47 0.26L453.4 897a75.13 75.13 0 0 0 17.48 8.37l1.06 0.37a91.83 91.83 0 0 0 27.76 4.55q4.29 0 8.63-0.36a108.43 108.43 0 0 0 36.34-10.07L801.3 752.49c4.71-3.48 41.62-31.78 50.29-66.14a61.43 61.43 0 0 0 1.91-14.94l-0.4-158.18 0.53-158.23a62 62 0 0 0-1.92-15.08c-8.71-34.38-45.35-62.46-50.12-65.92L545.32 126.57a107.89 107.89 0 0 0-36-10c-3-0.27-5.95-0.39-8.9-0.38a91.83 91.83 0 0 0-26 4.06c-0.76 0.23-1.58 0.53-2.3 0.77a71.88 71.88 0 0 0-17.37 8.38l-1.35 0.91z m-13-24.29l248-142.47c0.13-0.09 13.11-7.56 13.43-7.71 4.57-3 24.39-15.57 54.07-17.19q3.22-0.16 6.59-0.17c18.74 0 37.72 4.56 56.34 13.34l1 0.53L817 251.11l1.22 0.88c8.94 6.61 62.55 48.42 62.92 101.73v12.13l-0.48 147.43 0.37 147v12.44c-0.38 52.87-53.23 94.46-62.87 101.62-0.73 0.55-1.29 0.94-1.47 1.07l-1 0.61-258.76 148.53c-18.66 8.78-37.66 13.27-56.5 13.31-2.29 0-4.52-0.05-6.71-0.17-29.92-1.63-50-14.16-54.43-17.15-0.33-0.16-13.51-7.78-13.64-7.87L179.14 770.3c-56.94-29.88-64.56-84.55-60.8-110.46V379.37 366.6c-3.76-25.94 3.86-80.6 60.81-110.51z" fill="#0EBBCB" opacity=".95" p-id="2349"></path><path d="M500.87 115c-28 0-45.75 12.81-45.92 13l-1.35 0.92-261.9 150.5c-55.88 29.16-47 84-47 84.58l0.2 2.18v295.14l-0.2 1.1c-0.33 2.18-8.4 55.67 47 84.6l0.47 0.26L453.6 898.37c0.13 0.09 18.31 13 46.51 13 14.87 0 30-3.57 45.08-10.58L801.9 753.4c5-3.65 52.69-40 52.69-81.33l-0.4-158.85 0.53-158.9c0-41.52-47.52-77.6-52.53-81.28L545.82 125.6c-15.05-7.04-30.15-10.6-44.95-10.6z m-0.76 821.75c-33.86 0-56.57-14.5-60.91-17.55L179.73 769.35c-56.63-29.71-64.14-84.35-60.16-110.12v-292c-4-25.83 3.53-80.44 60.16-110.18l260.71-149.84c4.45-3.1 26.87-17.58 60.43-17.58 18.69 0 37.62 4.48 56.21 13.25l0.92 0.49L816.41 252c2.6 1.84 63.65 45.68 63.65 102.31l-0.52 158.93 0.4 158.76c0 56.65-61.25 100.55-63.83 102.39l-1 0.6-258.63 148.58c-18.62 8.76-37.58 13.21-56.37 13.21z" fill="#0EBBCB" opacity=".3" p-id="2350"></path><path d="M491.76 934.23c-32.82 0-54.05-14.43-56.75-16.38L175.26 767.71c-63.95-33.38-56.62-96.39-55.69-102.76V371.62c-0.93-6.36-8.26-69.39 55.88-102.89l260.61-150c2.76-2 23.71-16.38 56.34-16.38 17.56 0 35.39 4.19 53 12.47L803.12 263C806 265 864 306.71 864 359.4l-0.5 158.88 0.41 158.84c0 52.72-58.13 94.41-60.6 96.16L545.22 921.56c-17.95 8.44-35.82 12.67-53.46 12.67z m0.64-821.79c-31 0-50.32 14.4-50.51 14.54l-0.53 0.37-261 150.29c-60.69 31.69-51.12 90.27-50.68 92.71l0.07 0.89-0.07 295c-0.44 2.44-10 61 50.49 92.65l260.64 150.66c0.19 0.17 20 14.56 50.95 14.56 16.13 0 32.54-3.9 48.74-11.55l257.34-147.81c0.15-0.17 55.9-40.19 55.9-87.6l-0.4-158.87 0.5-158.88c0-47.43-55.6-87.42-56.15-87.82l-257-147.76c-15.87-7.47-32.22-11.38-48.29-11.38z" fill="#0EBBCB" p-id="2351"></path><path d="M150 604.47a20.31 20.31 0 0 1-20.29 20.31 20.31 20.31 0 0 1-20.28-20.31V437.18a20.3 20.3 0 0 1 20.28-20.32A20.29 20.29 0 0 1 150 437.18zM875 604.47a20.31 20.31 0 0 1-20.28 20.31 20.3 20.3 0 0 1-20.28-20.31V437.18a20.28 20.28 0 0 1 20.28-20.32A20.29 20.29 0 0 1 875 437.18zM613.42 895.21a20.23 20.23 0 0 1-27.72-7.41 20.29 20.29 0 0 1 7.42-27.7L738 776.36a20.27 20.27 0 0 1 27.7 7.38 20.28 20.28 0 0 1-7.4 27.72zM492.31 874.7c-29 0-47.08-13.33-47.82-13.88L221.32 731.57c-56.67-29.62-46-86.54-45.93-87.11V391.64c-0.07-0.06-10.7-57 46.07-86.68l223.69-129.4c0.47-0.37 18.47-13.7 47.43-13.7 14.85 0 29.92 3.53 44.82 10.57L759.28 300c2.28 1.61 51.49 37 51.49 81.42l-0.42 136.84 0.37 136.81c0 44.47-49.24 79.84-51.34 81.31L537.36 864c-15.08 7.17-30.18 10.7-45.05 10.7z m0.23-707.81c-27.28 0-44.46 12.75-44.63 12.89l-224 129.63c-53.42 27.93-43.93 79.53-43.48 81.71v253.8c-0.48 2.7-10 54.3 43.36 82.17L447.28 856.6c0.41 0.31 17.8 13.07 45 13.07 14.13 0 28.5-3.42 42.7-10.11l221.67-127.42c0.29-0.2 49-35.19 49-77l-0.39-136.84 0.45-136.84c0-41.86-48.68-76.82-49.17-77.17L535 176.91c-14-6.6-28.38-10.02-42.46-10.02z" fill="#0EBBCB" p-id="2352"></path></svg>